# 3ds Max Wavefront OBJ Exporter v0.97b - (c)2007 guruware
# File Created: 24.01.2018 13:18:47

mtllib NextArrow.mtl

#
# object TriOutline
#

v  -1.0000 64.0161 1.2615
v  -1.0000 0.0161 1.2615
v  1.0000 4.0161 1.2615
v  1.0000 60.0161 1.2615
v  1.0000 4.0161 -1.2615
v  1.0000 60.0161 -1.2615
v  -1.0000 0.0161 -1.2615
v  -1.0000 64.0161 -1.2615
v  41.6667 32.0161 1.2615
v  38.3333 32.0161 1.2615
v  38.3333 32.0161 -1.2615
v  41.6667 32.0161 -1.2615
# 12 vertices

vn 0.0000 0.0000 1.0000
vn 1.0000 0.0000 -0.0000
vn 0.0000 0.0000 -1.0000
vn -1.0000 0.0000 -0.0000
vn -0.6000 0.8000 -0.0000
vn 0.6000 -0.8000 -0.0000
vn -0.6000 -0.8000 -0.0000
vn 0.6000 0.8000 -0.0000
# 8 vertex normals

vt 0.0080 0.5752 0.0000
vt 0.0080 0.0081 0.0000
vt 0.0268 0.0435 0.0000
vt 0.0268 0.5398 0.0000
vt 0.9393 0.5752 0.0000
vt 0.9393 0.0081 0.0000
vt 0.9657 0.0081 0.0000
vt 0.9657 0.5752 0.0000
vt 0.8065 0.5398 0.0000
vt 0.8065 0.0435 0.0000
vt 0.8253 0.0081 0.0000
vt 0.8253 0.5752 0.0000
vt 0.8876 0.5752 0.0000
vt 0.8876 0.0081 0.0000
vt 0.9140 0.0081 0.0000
vt 0.9140 0.5752 0.0000
vt 0.4087 0.2917 0.0000
vt 0.3774 0.2917 0.0000
vt 0.7187 0.7302 0.0000
vt 0.4013 0.7302 0.0000
vt 0.4013 0.6952 0.0000
vt 0.7187 0.6952 0.0000
vt 0.4560 0.2917 0.0000
vt 0.4247 0.2917 0.0000
vt 0.0080 0.6281 0.0000
vt 0.4087 0.6281 0.0000
vt 0.4087 0.6632 0.0000
vt 0.0080 0.6632 0.0000
vt 0.3254 0.7302 0.0000
vt 0.0079 0.7302 0.0000
vt 0.0079 0.6952 0.0000
vt 0.3254 0.6952 0.0000
vt 0.4847 0.6281 0.0000
vt 0.8853 0.6281 0.0000
vt 0.8853 0.6632 0.0000
vt 0.4847 0.6632 0.0000
# 36 texture coords

o TriOutline
g TriOutline
usemtl graymat
s 1
f 1/1/1 2/2/1 3/3/1 4/4/1 
s 2
f 4/5/2 3/6/2 5/7/2 6/8/2 
s 1
f 6/9/3 5/10/3 7/11/3 8/12/3 
s 2
f 8/13/4 7/14/4 2/15/4 1/16/4 
s 1
f 2/2/1 9/17/1 10/18/1 3/3/1 
s 4
f 3/19/5 10/20/5 11/21/5 5/22/5 
s 1
f 5/10/3 11/23/3 12/24/3 7/11/3 
s 4
f 7/25/6 12/26/6 9/27/6 2/28/6 
s 1
f 9/17/1 1/1/1 4/4/1 10/18/1 
s 8
f 10/29/7 4/30/7 6/31/7 11/32/7 
s 1
f 11/23/3 6/9/3 8/12/3 12/24/3 
s 8
f 12/33/8 8/34/8 1/35/8 9/36/8 
# 12 polygons

